<svg id="visual" viewBox="0 0 900 600" width="900" height="600" xmlns="http://www.w3.org/2000/svg" xmlns:xlink="http://www.w3.org/1999/xlink" version="1.1"><rect x="0" y="0" width="900" height="600" fill="#001220"></rect><path d="M0 354L21.5 357.3C43 360.7 86 367.3 128.8 367.5C171.7 367.7 214.3 361.3 257.2 373.2C300 385 343 415 385.8 423.7C428.7 432.3 471.3 419.7 514.2 419C557 418.3 600 429.7 642.8 434.8C685.7 440 728.3 439 771.2 432.3C814 425.7 857 413.3 878.5 407.2L900 401L900 601L878.5 601C857 601 814 601 771.2 601C728.3 601 685.7 601 642.8 601C600 601 557 601 514.2 601C471.3 601 428.7 601 385.8 601C343 601 300 601 257.2 601C214.3 601 171.7 601 128.8 601C86 601 43 601 21.5 601L0 601Z" fill="#c62368"></path><path d="M0 452L21.5 451C43 450 86 448 128.8 442.2C171.7 436.3 214.3 426.7 257.2 419.5C300 412.3 343 407.7 385.8 409.5C428.7 411.3 471.3 419.7 514.2 430.5C557 441.3 600 454.7 642.8 462.8C685.7 471 728.3 474 771.2 464.2C814 454.3 857 431.7 878.5 420.3L900 409L900 601L878.5 601C857 601 814 601 771.2 601C728.3 601 685.7 601 642.8 601C600 601 557 601 514.2 601C471.3 601 428.7 601 385.8 601C343 601 300 601 257.2 601C214.3 601 171.7 601 128.8 601C86 601 43 601 21.5 601L0 601Z" fill="#e95667"></path><path d="M0 477L21.5 478.3C43 479.7 86 482.3 128.8 479.7C171.7 477 214.3 469 257.2 469.3C300 469.7 343 478.3 385.8 475.5C428.7 472.7 471.3 458.3 514.2 450.8C557 443.3 600 442.7 642.8 441.8C685.7 441 728.3 440 771.2 444.7C814 449.3 857 459.7 878.5 464.8L900 470L900 601L878.5 601C857 601 814 601 771.2 601C728.3 601 685.7 601 642.8 601C600 601 557 601 514.2 601C471.3 601 428.7 601 385.8 601C343 601 300 601 257.2 601C214.3 601 171.7 601 128.8 601C86 601 43 601 21.5 601L0 601Z" fill="#fa7268"></path><path d="M0 497L21.5 494.8C43 492.7 86 488.3 128.8 488.7C171.7 489 214.3 494 257.2 500C300 506 343 513 385.8 513C428.7 513 471.3 506 514.2 507.8C557 509.7 600 520.3 642.8 519.7C685.7 519 728.3 507 771.2 504.8C814 502.7 857 510.3 878.5 514.2L900 518L900 601L878.5 601C857 601 814 601 771.2 601C728.3 601 685.7 601 642.8 601C600 601 557 601 514.2 601C471.3 601 428.7 601 385.8 601C343 601 300 601 257.2 601C214.3 601 171.7 601 128.8 601C86 601 43 601 21.5 601L0 601Z" fill="#e95667"></path><path d="M0 538L21.5 536.8C43 535.7 86 533.3 128.8 531.8C171.7 530.3 214.3 529.7 257.2 529.5C300 529.3 343 529.7 385.8 530.5C428.7 531.3 471.3 532.7 514.2 536.8C557 541 600 548 642.8 548.5C685.7 549 728.3 543 771.2 544.3C814 545.7 857 554.3 878.5 558.7L900 563L900 601L878.5 601C857 601 814 601 771.2 601C728.3 601 685.7 601 642.8 601C600 601 557 601 514.2 601C471.3 601 428.7 601 385.8 601C343 601 300 601 257.2 601C214.3 601 171.7 601 128.8 601C86 601 43 601 21.5 601L0 601Z" fill="#c62368"></path></svg>