<svg id="visual" viewBox="0 0 900 600" width="900" height="600" xmlns="http://www.w3.org/2000/svg" xmlns:xlink="http://www.w3.org/1999/xlink" version="1.1"><rect x="0" y="0" width="900" height="600" fill="#001220"></rect><defs><linearGradient id="grad1_0" x1="33.3%" y1="0%" x2="100%" y2="100%"><stop offset="20%" stop-color="#fa7268" stop-opacity="1"></stop><stop offset="80%" stop-color="#fa7268" stop-opacity="1"></stop></linearGradient></defs><defs><linearGradient id="grad1_1" x1="33.3%" y1="0%" x2="100%" y2="100%"><stop offset="20%" stop-color="#fa7268" stop-opacity="1"></stop><stop offset="80%" stop-color="#bd5079" stop-opacity="1"></stop></linearGradient></defs><defs><linearGradient id="grad1_2" x1="33.3%" y1="0%" x2="100%" y2="100%"><stop offset="20%" stop-color="#723f71" stop-opacity="1"></stop><stop offset="80%" stop-color="#bd5079" stop-opacity="1"></stop></linearGradient></defs><defs><linearGradient id="grad1_3" x1="33.3%" y1="0%" x2="100%" y2="100%"><stop offset="20%" stop-color="#723f71" stop-opacity="1"></stop><stop offset="80%" stop-color="#2c2c4f" stop-opacity="1"></stop></linearGradient></defs><defs><linearGradient id="grad1_4" x1="33.3%" y1="0%" x2="100%" y2="100%"><stop offset="20%" stop-color="#001220" stop-opacity="1"></stop><stop offset="80%" stop-color="#2c2c4f" stop-opacity="1"></stop></linearGradient></defs><defs><linearGradient id="grad2_0" x1="0%" y1="0%" x2="66.7%" y2="100%"><stop offset="20%" stop-color="#fa7268" stop-opacity="1"></stop><stop offset="80%" stop-color="#fa7268" stop-opacity="1"></stop></linearGradient></defs><defs><linearGradient id="grad2_1" x1="0%" y1="0%" x2="66.7%" y2="100%"><stop offset="20%" stop-color="#bd5079" stop-opacity="1"></stop><stop offset="80%" stop-color="#fa7268" stop-opacity="1"></stop></linearGradient></defs><defs><linearGradient id="grad2_2" x1="0%" y1="0%" x2="66.7%" y2="100%"><stop offset="20%" stop-color="#bd5079" stop-opacity="1"></stop><stop offset="80%" stop-color="#723f71" stop-opacity="1"></stop></linearGradient></defs><defs><linearGradient id="grad2_3" x1="0%" y1="0%" x2="66.7%" y2="100%"><stop offset="20%" stop-color="#2c2c4f" stop-opacity="1"></stop><stop offset="80%" stop-color="#723f71" stop-opacity="1"></stop></linearGradient></defs><defs><linearGradient id="grad2_4" x1="0%" y1="0%" x2="66.7%" y2="100%"><stop offset="20%" stop-color="#2c2c4f" stop-opacity="1"></stop><stop offset="80%" stop-color="#001220" stop-opacity="1"></stop></linearGradient></defs><g transform="translate(900, 0)"><path d="M0 378.6C-29.5 365 -59 351.4 -92.4 344.8C-125.8 338.3 -163.2 338.8 -182 315.2C-200.8 291.7 -201.1 244.2 -218.5 218.5C-235.9 192.8 -270.3 189 -299.6 173C-329 157 -353.4 128.8 -365.7 98C-378 67.1 -378.3 33.6 -378.6 0L0 0Z" fill="#122038"></path><path d="M0 302.9C-23.6 292 -47.2 281.1 -73.9 275.9C-100.7 270.6 -130.5 271 -145.6 252.2C-160.7 233.4 -160.9 195.3 -174.8 174.8C-188.7 154.3 -216.2 151.2 -239.7 138.4C-263.2 125.6 -282.7 103.1 -292.5 78.4C-302.4 53.7 -302.6 26.8 -302.9 0L0 0Z" fill="#4d3763"></path><path d="M0 227.1C-17.7 219 -35.4 210.8 -55.4 206.9C-75.5 203 -97.9 203.3 -109.2 189.1C-120.5 175 -120.7 146.5 -131.1 131.1C-141.5 115.7 -162.2 113.4 -179.8 103.8C-197.4 94.2 -212 77.3 -219.4 58.8C-226.8 40.3 -227 20.1 -227.1 0L0 0Z" fill="#984778"></path><path d="M0 151.4C-11.8 146 -23.6 140.6 -37 137.9C-50.3 135.3 -65.3 135.5 -72.8 126.1C-80.3 116.7 -80.5 97.7 -87.4 87.4C-94.3 77.1 -108.1 75.6 -119.9 69.2C-131.6 62.8 -141.3 51.5 -146.3 39.2C-151.2 26.8 -151.3 13.4 -151.4 0L0 0Z" fill="#df5e73"></path><path d="M0 75.7C-5.9 73 -11.8 70.3 -18.5 69C-25.2 67.7 -32.6 67.8 -36.4 63C-40.2 58.3 -40.2 48.8 -43.7 43.7C-47.2 38.6 -54.1 37.8 -59.9 34.6C-65.8 31.4 -70.7 25.8 -73.1 19.6C-75.6 13.4 -75.7 6.7 -75.7 0L0 0Z" fill="#fa7268"></path></g><g transform="translate(0, 600)"><path d="M0 -378.6C26.3 -353.8 52.6 -329 87.5 -326.5C122.4 -324 165.9 -343.8 189.3 -327.9C212.7 -311.9 215.9 -260.3 227.7 -227.7C239.5 -195.1 259.8 -181.6 282.3 -163C304.8 -144.4 329.4 -120.7 345.8 -92.7C362.2 -64.6 370.4 -32.3 378.6 0L0 0Z" fill="#122038"></path><path d="M0 -302.9C21 -283 42.1 -263.2 70 -261.2C97.9 -259.2 132.7 -275 151.4 -262.3C170.1 -249.5 172.7 -208.2 182.2 -182.2C191.6 -156.1 207.9 -145.3 225.9 -130.4C243.8 -115.5 263.5 -96.5 276.6 -74.1C289.8 -51.7 296.3 -25.9 302.9 0L0 0Z" fill="#4d3763"></path><path d="M0 -227.1C15.8 -212.3 31.5 -197.4 52.5 -195.9C73.4 -194.4 99.5 -206.3 113.6 -196.7C127.6 -187.2 129.5 -156.2 136.6 -136.6C143.7 -117.1 155.9 -109 169.4 -97.8C182.9 -86.6 197.6 -72.4 207.5 -55.6C217.3 -38.8 222.2 -19.4 227.1 0L0 0Z" fill="#984778"></path><path d="M0 -151.4C10.5 -141.5 21 -131.6 35 -130.6C49 -129.6 66.4 -137.5 75.7 -131.1C85.1 -124.8 86.4 -104.1 91.1 -91.1C95.8 -78 103.9 -72.6 112.9 -65.2C121.9 -57.8 131.8 -48.3 138.3 -37.1C144.9 -25.9 148.2 -12.9 151.4 0L0 0Z" fill="#df5e73"></path><path d="M0 -75.7C5.3 -70.8 10.5 -65.8 17.5 -65.3C24.5 -64.8 33.2 -68.8 37.9 -65.6C42.5 -62.4 43.2 -52.1 45.5 -45.5C47.9 -39 52 -36.3 56.5 -32.6C61 -28.9 65.9 -24.1 69.2 -18.5C72.4 -12.9 74.1 -6.5 75.7 0L0 0Z" fill="#fa7268"></path></g></svg>