<svg id="visual" viewBox="0 0 1920 1080" width="1920" height="1080" xmlns="http://www.w3.org/2000/svg" xmlns:xlink="http://www.w3.org/1999/xlink" version="1.1"><path d="M0 163L40 172C80 181 160 199 240 190C320 181 400 145 480 130.7C560 116.3 640 123.7 720 150.7C800 177.7 880 224.3 960 220.7C1040 217 1120 163 1200 157.7C1280 152.3 1360 195.7 1440 217.3C1520 239 1600 239 1680 237.2C1760 235.3 1840 231.7 1880 229.8L1920 228L1920 0L1880 0C1840 0 1760 0 1680 0C1600 0 1520 0 1440 0C1360 0 1280 0 1200 0C1120 0 1040 0 960 0C880 0 800 0 720 0C640 0 560 0 480 0C400 0 320 0 240 0C160 0 80 0 40 0L0 0Z" fill="#fa7268"></path><path d="M0 314L40 321.2C80 328.3 160 342.7 240 319.3C320 296 400 235 480 209.8C560 184.7 640 195.3 720 222.3C800 249.3 880 292.7 960 289.2C1040 285.7 1120 235.3 1200 229.8C1280 224.3 1360 263.7 1440 290.7C1520 317.7 1600 332.3 1680 341.3C1760 350.3 1840 353.7 1880 355.3L1920 357L1920 226L1880 227.8C1840 229.7 1760 233.3 1680 235.2C1600 237 1520 237 1440 215.3C1360 193.7 1280 150.3 1200 155.7C1120 161 1040 215 960 218.7C880 222.3 800 175.7 720 148.7C640 121.7 560 114.3 480 128.7C400 143 320 179 240 188C160 197 80 179 40 170L0 161Z" fill="#f16367"></path><path d="M0 444L40 478.2C80 512.3 160 580.7 240 604C320 627.3 400 605.7 480 575C560 544.3 640 504.7 720 504.7C800 504.7 880 544.3 960 542.7C1040 541 1120 498 1200 472.8C1280 447.7 1360 440.3 1440 454.7C1520 469 1600 505 1680 546.3C1760 587.7 1840 634.3 1880 657.7L1920 681L1920 355L1880 353.3C1840 351.7 1760 348.3 1680 339.3C1600 330.3 1520 315.7 1440 288.7C1360 261.7 1280 222.3 1200 227.8C1120 233.3 1040 283.7 960 287.2C880 290.7 800 247.3 720 220.3C640 193.3 560 182.7 480 207.8C400 233 320 294 240 317.3C160 340.7 80 326.3 40 319.2L0 312Z" fill="#e85467"></path><path d="M0 768L40 784.2C80 800.3 160 832.7 240 830.8C320 829 400 793 480 796.7C560 800.3 640 843.7 720 854.5C800 865.3 880 843.7 960 829.2C1040 814.7 1120 807.3 1200 794.7C1280 782 1360 764 1440 782C1520 800 1600 854 1680 863C1760 872 1840 836 1880 818L1920 800L1920 679L1880 655.7C1840 632.3 1760 585.7 1680 544.3C1600 503 1520 467 1440 452.7C1360 438.3 1280 445.7 1200 470.8C1120 496 1040 539 960 540.7C880 542.3 800 502.7 720 502.7C640 502.7 560 542.3 480 573C400 603.7 320 625.3 240 602C160 578.7 80 510.3 40 476.2L0 442Z" fill="#de4467"></path><path d="M0 930L40 928.2C80 926.3 160 922.7 240 920.8C320 919 400 919 480 922.7C560 926.3 640 933.7 720 937.3C800 941 880 941 960 926.5C1040 912 1120 883 1200 872.2C1280 861.3 1360 868.7 1440 893.8C1520 919 1600 962 1680 972.8C1760 983.7 1840 962.3 1880 951.7L1920 941L1920 798L1880 816C1840 834 1760 870 1680 861C1600 852 1520 798 1440 780C1360 762 1280 780 1200 792.7C1120 805.3 1040 812.7 960 827.2C880 841.7 800 863.3 720 852.5C640 841.7 560 798.3 480 794.7C400 791 320 827 240 828.8C160 830.7 80 798.3 40 782.2L0 766Z" fill="#d23467"></path><path d="M0 1081L40 1081C80 1081 160 1081 240 1081C320 1081 400 1081 480 1081C560 1081 640 1081 720 1081C800 1081 880 1081 960 1081C1040 1081 1120 1081 1200 1081C1280 1081 1360 1081 1440 1081C1520 1081 1600 1081 1680 1081C1760 1081 1840 1081 1880 1081L1920 1081L1920 939L1880 949.7C1840 960.3 1760 981.7 1680 970.8C1600 960 1520 917 1440 891.8C1360 866.7 1280 859.3 1200 870.2C1120 881 1040 910 960 924.5C880 939 800 939 720 935.3C640 931.7 560 924.3 480 920.7C400 917 320 917 240 918.8C160 920.7 80 924.3 40 926.2L0 928Z" fill="#c62368"></path></svg>