<svg id="visual" viewBox="0 0 1920 1080" width="1920" height="1080" xmlns="http://www.w3.org/2000/svg" xmlns:xlink="http://www.w3.org/1999/xlink" version="1.1"><rect x="0" y="0" width="1920" height="1080" fill="#001220"></rect><defs><linearGradient id="grad1_0" x1="43.8%" y1="0%" x2="100%" y2="100%"><stop offset="14.444444444444446%" stop-color="#c62368" stop-opacity="1"></stop><stop offset="85.55555555555554%" stop-color="#c62368" stop-opacity="1"></stop></linearGradient></defs><defs><linearGradient id="grad1_1" x1="43.8%" y1="0%" x2="100%" y2="100%"><stop offset="14.444444444444446%" stop-color="#c62368" stop-opacity="1"></stop><stop offset="85.55555555555554%" stop-color="#742d70" stop-opacity="1"></stop></linearGradient></defs><defs><linearGradient id="grad1_2" x1="43.8%" y1="0%" x2="100%" y2="100%"><stop offset="14.444444444444446%" stop-color="#262853" stop-opacity="1"></stop><stop offset="85.55555555555554%" stop-color="#742d70" stop-opacity="1"></stop></linearGradient></defs><defs><linearGradient id="grad1_3" x1="43.8%" y1="0%" x2="100%" y2="100%"><stop offset="14.444444444444446%" stop-color="#262853" stop-opacity="1"></stop><stop offset="85.55555555555554%" stop-color="#001220" stop-opacity="1"></stop></linearGradient></defs><defs><linearGradient id="grad2_0" x1="0%" y1="0%" x2="56.3%" y2="100%"><stop offset="14.444444444444446%" stop-color="#c62368" stop-opacity="1"></stop><stop offset="85.55555555555554%" stop-color="#c62368" stop-opacity="1"></stop></linearGradient></defs><defs><linearGradient id="grad2_1" x1="0%" y1="0%" x2="56.3%" y2="100%"><stop offset="14.444444444444446%" stop-color="#742d70" stop-opacity="1"></stop><stop offset="85.55555555555554%" stop-color="#c62368" stop-opacity="1"></stop></linearGradient></defs><defs><linearGradient id="grad2_2" x1="0%" y1="0%" x2="56.3%" y2="100%"><stop offset="14.444444444444446%" stop-color="#742d70" stop-opacity="1"></stop><stop offset="85.55555555555554%" stop-color="#262853" stop-opacity="1"></stop></linearGradient></defs><defs><linearGradient id="grad2_3" x1="0%" y1="0%" x2="56.3%" y2="100%"><stop offset="14.444444444444446%" stop-color="#001220" stop-opacity="1"></stop><stop offset="85.55555555555554%" stop-color="#262853" stop-opacity="1"></stop></linearGradient></defs><g transform="translate(1920, 0)"><path d="M0 864C-44.3 769.6 -88.6 675.2 -154 674.7C-219.4 674.1 -305.8 767.4 -374.9 778.4C-443.9 789.4 -495.6 718.1 -511.3 641.1C-526.9 564.1 -506.5 481.4 -548.8 437.7C-591.2 394 -696.3 389.2 -719 346.2C-741.6 303.3 -681.8 222.1 -692.2 158C-702.6 93.9 -783.3 47 -864 0L0 0Z" fill="#0b1e3a"></path><path d="M0 648C-33.2 577.2 -66.5 506.4 -115.5 506C-164.5 505.6 -229.4 575.6 -281.2 583.8C-333 592.1 -371.7 538.6 -383.4 480.8C-395.2 423.1 -379.9 361.1 -411.6 328.3C-443.4 295.5 -522.2 291.9 -539.2 259.7C-556.2 227.4 -511.3 166.5 -519.1 118.5C-527 70.4 -587.5 35.2 -648 0L0 0Z" fill="#4b2d66"></path><path d="M0 432C-22.2 384.8 -44.3 337.6 -77 337.3C-109.7 337.1 -152.9 383.7 -187.4 389.2C-222 394.7 -247.8 359.1 -255.6 320.6C-263.4 282 -253.2 240.7 -274.4 218.8C-295.6 197 -348.2 194.6 -359.5 173.1C-370.8 151.6 -340.9 111 -346.1 79C-351.3 47 -391.7 23.5 -432 0L0 0Z" fill="#9f2871"></path><path d="M0 216C-11.1 192.4 -22.2 168.8 -38.5 168.7C-54.8 168.5 -76.5 191.9 -93.7 194.6C-111 197.4 -123.9 179.5 -127.8 160.3C-131.7 141 -126.6 120.4 -137.2 109.4C-147.8 98.5 -174.1 97.3 -179.7 86.6C-185.4 75.8 -170.4 55.5 -173 39.5C-175.7 23.5 -195.8 11.7 -216 0L0 0Z" fill="#c62368"></path></g><g transform="translate(0, 1080)"><path d="M0 -864C67.2 -859.6 134.3 -855.1 187.8 -822.8C241.3 -790.6 281 -730.5 338.4 -702.8C395.8 -675 470.8 -679.6 517.5 -648.9C564.2 -618.2 582.6 -552.3 634.1 -505.7C685.5 -459 770.1 -431.7 778.4 -374.9C786.8 -318.1 718.9 -231.8 720.5 -164.4C722 -97.1 793 -48.5 864 0L0 0Z" fill="#0b1e3a"></path><path d="M0 -648C50.4 -644.7 100.8 -641.3 140.9 -617.1C181 -592.9 210.8 -547.9 253.8 -527.1C296.9 -506.3 353.1 -509.7 388.1 -486.7C423.1 -463.7 436.9 -414.2 475.5 -379.2C514.2 -344.3 577.6 -323.8 583.8 -281.2C590.1 -238.6 539.2 -173.9 540.4 -123.3C541.5 -72.8 594.8 -36.4 648 0L0 0Z" fill="#4b2d66"></path><path d="M0 -432C33.6 -429.8 67.2 -427.6 93.9 -411.4C120.6 -395.3 140.5 -365.2 169.2 -351.4C197.9 -337.5 235.4 -339.8 258.7 -324.5C282.1 -309.1 291.3 -276.1 317 -252.8C342.8 -229.5 385 -215.8 389.2 -187.4C393.4 -159 359.5 -115.9 360.2 -82.2C361 -48.5 396.5 -24.3 432 0L0 0Z" fill="#9f2871"></path><path d="M0 -216C16.8 -214.9 33.6 -213.8 47 -205.7C60.3 -197.6 70.3 -182.6 84.6 -175.7C99 -168.8 117.7 -169.9 129.4 -162.2C141 -154.6 145.6 -138.1 158.5 -126.4C171.4 -114.8 192.5 -107.9 194.6 -93.7C196.7 -79.5 179.7 -58 180.1 -41.1C180.5 -24.3 198.3 -12.1 216 0L0 0Z" fill="#c62368"></path></g></svg>